<?xml version="1.0" encoding="UTF-8"?>
<svg width="497" height="320" viewBox="0 0 497 320" fill="none" xmlns="http://www.w3.org/2000/svg">
  <g>
    <style>
      path {
        fill: #1a2641;
        stroke: #0e1525;
        stroke-width: 1;
      }
    </style>
    <path d="M281.5954095409541,235.89728951304784L281.7448244824483,236.3267793716422L281.545604560456,237.01969534928082L281.7946294629463,237.68988696111677L281.5954095409541,238.21730494151785L281.7448244824483,238.6974388836434L278.8561356135614,238.67341688965922L278.75652565256524,243.22070632321967L279.7028202820282,244.417293818359L280.5993099309931,245.32431899170535L278.05925592559254,245.91432880487847L274.72232223222323,245.6929181977984L273.7760276027603,245.00528368124787L268.14806480648065,245.07887313978586L267.9488448844885,245.17702414907953L267.1021602160216,244.51520330378378L266.2056705670567,244.46624415705008L265.4087908790879,244.71112837679004L264.7115211521152,245.00528368124787L264.61191119111913,244.0748863736647L264.81113111311134,242.83107672967208L265.2593759375938,241.49563548345992L265.3589858985899,240.89054158723508L265.80723072307234,239.61150105110076L266.1060606060606,239.03391862580824L266.9029402940294,238.09737093915402L267.35118511851186,237.4743398422978L267.50060006000604,236.42228272429966L267.450795079508,235.61120857654225L267.0025502550255,235.11102663606457L266.65391539153916,234.25488069024928L266.30528052805283,233.42401755946057L266.4048904890489,233.1394737769825L266.80333033303333,232.57085965221037L266.4048904890489,231.22277641509913L266.1060606060606,230.3021691670482L265.4087908790879,229.406407850306L265.55820582058203,229.14732033404636L266.1060606060606,228.95894973912274L266.504500450045,228.9824934969251L267.0025502550255,228.81770238588356L271.0865586558656,228.84124181315946L271.43519351935197,229.87771577984276L271.83363336333633,230.70329365775802L272.1324632463246,231.1519118529679L272.68031803180315,231.8845904367924L273.57680768076807,231.76635378367956L274.0250525052505,231.5772259573118L274.8219321932193,231.76635378367956L275.0211521152115,231.43542056328835L275.36978697869785,230.6088888446765L276.2164716471647,230.56169169561767L276.31608160816086,230.32575784556508L277.0133513351335,230.3021691670482L276.8639363936394,230.82131956503918L278.5573057305731,230.79771260415794L278.60711071107113,231.67178210370665L278.8561356135614,232.21578561343395L278.65691569156917,233.06836283150142L278.75652565256524,233.92236323396622L279.2047704770477,234.44499651686414L279.15496549654966,236.1119785395149L279.50360036003605,235.9926931595793L280.1012601260126,236.01654748838857L280.94794479447944,235.825751067638Z"/>
    <path d="M281.5954095409541,235.89728951304784L281.7448244824483,236.3267793716422L281.545604560456,237.01969534928082L281.7946294629463,237.68988696111677L281.5954095409541,238.21730494151785L281.7448244824483,238.6974388836434L278.8561356135614,238.67341688965922L278.75652565256524,243.22070632321967L279.7028202820282,244.417293818359L280.5993099309931,245.32431899170535L278.05925592559254,245.91432880487847L274.72232223222323,245.6929181977984L273.7760276027603,245.00528368124787L268.14806480648065,245.07887313978586L267.9488448844885,245.17702414907953L267.1021602160216,244.51520330378378L266.2056705670567,244.46624415705008L265.4087908790879,244.71112837679004L264.7115211521152,245.00528368124787L264.61191119111913,244.0748863736647L264.81113111311134,242.83107672967208L265.2593759375938,241.49563548345992L265.3589858985899,240.89054158723508L265.80723072307234,239.61150105110076L266.1060606060606,239.03391862580824L266.9029402940294,238.09737093915402L267.35118511851186,237.4743398422978L267.50060006000604,236.42228272429966L267.450795079508,235.61120857654225L267.0025502550255,235.11102663606457L266.65391539153916,234.25488069024928L266.30528052805283,233.42401755946057L266.4048904890489,233.1394737769825L266.80333033303333,232.57085965221037L266.4048904890489,231.22277641509913L266.1060606060606,230.3021691670482L265.4087908790879,229.406407850306L265.55820582058203,229.14732033404636L266.1060606060606,228.95894973912274L266.504500450045,228.9824934969251L267.0025502550255,228.81770238588356L271.0865586558656,228.84124181315946L271.43519351935197,229.87771577984276L271.83363336333633,230.70329365775802L272.1324632463246,231.1519118529679L272.68031803180315,231.8845904367924L273.57680768076807,231.76635378367956L274.0250525052505,231.5772259573118L274.8219321932193,231.76635378367956L275.0211521152115,231.43542056328835L275.36978697869785,230.6088888446765L276.2164716471647,230.56169169561767L276.31608160816086,230.32575784556508L277.0133513351335,230.3021691670482L276.8639363936394,230.82131956503918L278.5573057305731,230.79771260415794L278.60711071107113,231.67178210370665L278.8561356135614,232.21578561343395L278.65691569156917,233.06836283150142L278.75652565256524,233.92236323396622L279.2047704770477,234.44499651686414L279.15496549654966,236.1119785395149L279.50360036003605,235.9926931595793L280.1012601260126,236.01654748838857L280.94794479447944,235.825751067638Z"/>
    <path d="M276.96354635463547,156.8307358052386L276.81413141314135,157.45780451189734L277.0133513351335,158.2370469553165L277.56120612061204,158.70218416373297L277.56120612061204,159.16554324259022L277.1129612961296,159.4427145919649L277.0133513351335,160.02580030847926L276.3658865886589,160.91048525001116L276.1168616861686,160.7584037103674L276.1168616861686,160.36211626237878L275.36978697869785,159.78062833796633L275.22037203720373,158.8877398993508L275.3199819981998,157.64528471506878L275.519201920192,157.08195941649348L275.3199819981998,156.76784685491617L275.22037203720373,156.2003393981484L275.8180318031803,155.2802355411963L275.8678367836784,155.63008973972075L276.26627662766276,155.43938974758157L276.56510651065105,155.9472361817496L276.91374137413743,156.13711452050808Z"/>
  </g>
</svg>