<svg width="200" height="200" viewBox="0 0 200 200" fill="none" xmlns="http://www.w3.org/2000/svg">
  <rect width="200" height="200" fill="#1A2641"/>
  <path d="M100 70C88.9543 70 80 78.9543 80 90C80 101.046 88.9543 110 100 110C111.046 110 120 101.046 120 90C120 78.9543 111.046 70 100 70ZM100 105C91.7157 105 85 98.2843 85 90C85 81.7157 91.7157 75 100 75C108.284 75 115 81.7157 115 90C115 98.2843 108.284 105 100 105Z" fill="#41BEEE"/>
  <path d="M85 125C77.8203 125 72 130.82 72 138V140C72 141.657 73.3431 143 75 143C76.6569 143 78 141.657 78 140V138C78 134.134 81.134 131 85 131H115C118.866 131 122 134.134 122 138V140C122 141.657 123.343 143 125 143C126.657 143 128 141.657 128 140V138C128 130.82 122.18 125 115 125H85Z" fill="#FF3EFF"/>
</svg>
